<svg viewBox="0 0 36 34" fill="none" xmlns="http://www.w3.org/2000/svg">
    <path fill-rule="evenodd" clip-rule="evenodd"
          d="M26.5828 0.0357364C24.2488 0.315076 22.1764 1.52747 20.6136 3.5282C20.2827 3.95225 18.7125 6.30936 18.2683 7.04982C18.1325 7.27588 17.8451 7.71145 17.6298 8.01743C17.4145 8.32305 17.0919 8.79425 16.9128 9.06423C15.8504 10.6658 14.146 12.61 13.2174 13.2802C12.1689 14.0369 11.0254 14.4584 9.827 14.5301C8.82333 14.5898 8.26087 14.4808 7.56085 14.0905C7.25553 13.9203 6.914 13.6946 6.80204 13.5884C6.69008 13.4825 6.44356 13.308 6.25452 13.2007C5.86049 12.9775 5.05018 12.1611 4.81729 11.7529C4.23156 10.7255 4.10366 10.2701 4.11827 9.26294C4.13256 8.26365 4.51662 6.94975 4.96414 6.37019C5.39703 5.80971 5.91432 5.30827 6.29671 5.07789C6.41034 5.00913 6.52197 4.93642 6.6316 4.8601C6.90204 4.66788 7.717 4.44433 8.27548 4.40905C9.24892 4.34786 10.52 4.79207 11.2317 5.44218C11.4818 5.67076 11.5539 5.70676 11.6051 5.62901C11.6539 5.55449 11.6599 5.56097 11.6307 5.65816C11.6051 5.7442 11.6533 5.83887 11.7835 5.95766C11.9633 6.12145 12.4447 6.87199 12.9231 7.73449C13.2334 8.29353 13.3806 8.44256 13.9048 8.72946C14.3088 8.95084 15.2969 8.86049 15.2417 8.60707C15.2307 8.55631 15.262 8.53831 15.3198 8.56207C15.5308 8.6499 15.963 8.09122 16.3666 7.20857C16.4843 6.95191 16.6039 6.7262 16.6331 6.70677C16.662 6.68697 16.7042 6.57934 16.7271 6.46702C16.7593 6.30828 16.7271 6.1974 16.5813 5.96702C16.4783 5.80395 16.3736 5.60021 16.3487 5.51417C16.3241 5.42814 16.2769 5.37558 16.2444 5.39718C16.2118 5.41914 16.1852 5.38458 16.1852 5.32051C16.1852 5.1794 15.8617 4.55484 15.6789 4.34318C15.6065 4.25931 15.5474 4.14339 15.5474 4.08616C15.5474 3.97313 14.8932 3.13223 14.3473 2.54367C13.6148 1.75317 12.5344 0.998306 11.8493 0.79852C11.7008 0.755323 11.5978 0.700248 11.6201 0.676129C11.6895 0.600895 10.7662 0.316876 9.96588 0.167487C9.3652 0.0555349 9.05623 0.0339365 8.53064 0.0674141C7.55587 0.12933 6.68077 0.25244 6.68077 0.327675C6.68077 0.363312 6.62596 0.373752 6.55885 0.350713C6.45054 0.313636 5.8492 0.487863 5.50069 0.657771C4.39303 1.19701 3.87973 1.51163 3.5465 1.85504C3.46345 1.94072 3.28072 2.09478 3.14052 2.19774C2.56077 2.62179 2.02389 3.26542 1.45345 4.21935C0.517551 5.78487 0.0471115 7.42095 0.0464471 9.11571C0.0454504 10.638 0.264391 11.7338 0.824865 13.0167C1.11856 13.6885 1.2551 13.8375 1.26175 13.4941C1.26374 13.3796 1.30228 13.4188 1.41823 13.6535C1.50262 13.8245 1.57305 13.9901 1.57471 14.0214C1.57936 14.11 1.4169 13.9109 1.35943 13.7572C1.32587 13.6676 1.2973 13.6496 1.2777 13.7065C1.2365 13.8256 1.60029 14.5088 1.88601 14.849C2.41625 15.4797 2.48237 15.5416 2.5332 15.4527C2.56808 15.3915 2.59499 15.3886 2.62589 15.443C2.64981 15.4851 2.63918 15.5196 2.60197 15.5196C2.56509 15.5196 2.53453 15.5441 2.53453 15.574C2.53453 15.6449 3.08537 16.0898 3.3671 16.2461C3.48803 16.3134 3.60132 16.3872 3.61893 16.4106C3.68039 16.4919 3.91262 16.6294 4.70333 17.0531C5.14188 17.2882 5.66747 17.5974 5.87179 17.7403C6.07578 17.8829 6.37711 18.0549 6.54157 18.1226C6.70569 18.1903 6.88344 18.3012 6.93593 18.3688C7.03626 18.4984 7.97016 18.7958 8.62632 18.9073C9.84461 19.1147 11.7101 18.8318 12.9589 18.2508C13.1503 18.1615 13.1875 18.1194 13.1184 18.0711C13.0586 18.0294 13.0975 18.0225 13.2317 18.0503C13.3992 18.0852 13.5583 18.0222 14.1247 17.6975C14.5038 17.4804 15.0507 17.1352 15.3401 16.9311C15.9098 16.5286 17.4836 15.0859 17.8753 14.6064C18.0085 14.4433 18.2793 14.1233 18.4773 13.8954C19.1029 13.174 20.0385 11.9429 20.9694 10.6161C21.1624 10.3411 21.4172 9.98648 21.5358 9.82846C21.6544 9.67043 21.9073 9.29246 22.0973 8.98828C22.2877 8.6841 22.5352 8.29533 22.6475 8.12434C22.8428 7.82556 23.0375 7.52607 23.2312 7.22585C23.7498 6.42347 24.7219 5.3817 25.2432 5.06961C25.9093 4.67148 26.5512 4.50337 27.412 4.50193C28.5127 4.50049 29.2645 4.77191 30.123 5.4807C31.83 6.89071 32.325 9.37273 31.3181 11.4732C31.042 12.0495 30.019 13.1996 29.4403 13.5844C29.2403 13.7172 29.0752 13.8429 29.0735 13.863C29.0718 13.8832 29.2928 14.0128 29.5649 14.1514C29.8366 14.2896 30.1596 14.4656 30.2825 14.5427C30.4054 14.6193 30.8489 14.89 31.2682 15.1438C31.6875 15.3976 32.2443 15.7587 32.5058 15.9462L32.9812 16.2871L33.24 16.0243C33.3825 15.8796 33.5327 15.7147 33.5742 15.6579C33.6154 15.6006 33.7397 15.4523 33.85 15.3278C34.1251 15.0168 34.9012 13.7306 35.1935 13.1006C36.1832 10.9689 36.271 7.97927 35.4072 5.83239C35.2902 5.54117 35.1942 5.27659 35.1942 5.24491C35.1942 5.21288 35.0068 4.86046 34.7779 4.46125C33.5387 2.30105 31.4041 0.677209 29.1476 0.179006C28.4163 0.0177377 27.2701 -0.0463375 26.5828 0.0357364ZM15.0995 3.94433C15.0553 4.00228 15.0317 4.06384 15.0474 4.08076C15.063 4.09768 15.1241 4.05016 15.1832 3.97529C15.2424 3.90041 15.266 3.83922 15.2357 3.83922C15.2052 3.83922 15.144 3.88673 15.0995 3.94433ZM1.47404 4.70099C1.45411 4.75643 1.45278 4.8421 1.47105 4.89106C1.49099 4.94506 1.50594 4.93102 1.50893 4.8547C1.51159 4.78595 1.54215 4.74851 1.57704 4.77191C1.61325 4.79603 1.62388 4.76831 1.60195 4.70675C1.55444 4.57248 1.51989 4.57104 1.47404 4.70099ZM1.26607 4.74923C1.26208 4.81259 1.24215 4.92166 1.22188 4.99113C1.18733 5.111 1.18932 5.11136 1.25809 4.99473C1.29829 4.92706 1.31823 4.81798 1.30228 4.75283C1.27637 4.64592 1.27271 4.64556 1.26607 4.74923ZM1.36474 5.20424C1.27404 5.56601 1.25444 5.73448 1.30959 5.67076C1.34281 5.6326 1.386 5.48502 1.40594 5.34247C1.44315 5.07501 1.41823 4.99077 1.36474 5.20424ZM12.4217 6.4789C12.4217 6.49798 12.4792 6.58509 12.5493 6.67293C12.6194 6.7604 12.6769 6.80108 12.6769 6.76328C12.6769 6.72548 12.6194 6.63801 12.5493 6.56926C12.4792 6.5005 12.4217 6.45982 12.4217 6.4789ZM16.0132 6.88027C16.0132 7.08942 16.0248 7.17473 16.0394 7.07034C16.054 6.96559 16.054 6.7946 16.0394 6.69021C16.0248 6.58545 16.0132 6.67113 16.0132 6.88027ZM4.34552 7.19885C4.2927 7.336 4.26545 7.46559 4.28505 7.48683C4.30466 7.50807 4.3206 7.50843 4.3206 7.48755C4.3206 7.46703 4.36413 7.33744 4.41695 7.19957C4.47011 7.06206 4.49735 6.94939 4.47775 6.94939C4.45781 6.94939 4.39835 7.0617 4.34552 7.19885ZM4.19137 7.71325C4.15283 7.79137 4.13023 7.90224 4.1412 7.95947C4.15216 8.01707 4.19269 7.95299 4.23123 7.81764C4.3103 7.54082 4.29535 7.50231 4.19137 7.71325ZM3.82525 8.67726C3.82525 8.81045 3.8382 8.86481 3.85415 8.79821C3.87043 8.73162 3.87043 8.6229 3.85415 8.55631C3.8382 8.48971 3.82525 8.54407 3.82525 8.67726ZM3.95714 9.16107C3.95714 9.37021 3.96877 9.45552 3.98339 9.35113C3.99801 9.24638 3.99801 9.07539 3.98339 8.971C3.96877 8.86625 3.95714 8.95192 3.95714 9.16107ZM0.153426 9.50664C0.171034 9.86769 0.19728 10.1762 0.211898 10.192C0.258743 10.2431 0.224523 9.27122 0.172031 9.05739C0.14213 8.93536 0.134488 9.12075 0.153426 9.50664ZM3.94418 10.0308C3.94784 10.1794 3.97409 10.3792 4.00299 10.4742C4.03522 10.5815 4.04153 10.4901 4.0196 10.2323C3.9784 9.75214 3.93488 9.63623 3.94418 10.0308ZM0.382997 10.6125C0.382997 10.7835 0.395622 10.8533 0.410905 10.768C0.425855 10.6823 0.425855 10.5423 0.410905 10.457C0.395622 10.3713 0.382997 10.4415 0.382997 10.6125ZM3.87408 11.0808C3.87408 11.1989 3.90232 11.3144 3.93688 11.3375C3.97608 11.3637 3.98472 11.2939 3.95947 11.1517C3.90598 10.8461 3.87408 10.8195 3.87408 11.0808ZM0.329176 11.2068C0.392964 11.4869 0.477683 11.5599 0.443131 11.3051C0.427516 11.1892 0.385323 11.0747 0.34911 11.0506C0.30592 11.0218 0.299275 11.0758 0.329176 11.2068ZM6.98776 14.5873C7.06915 14.6517 7.15287 14.6856 7.17381 14.6629C7.22497 14.6075 7.19008 14.5787 6.99972 14.5196L6.84024 14.47L6.98776 14.5873ZM25.2751 14.8749C24.6571 14.9581 24.2226 15.0567 24.2226 15.1143C24.2226 15.1503 24.1867 15.1737 24.1429 15.1661C24.0678 15.1532 23.9887 15.1777 23.6804 15.3109C23.6103 15.3407 23.4236 15.4041 23.2658 15.4509C22.804 15.5877 22.3073 15.8047 21.8624 16.0636C21.2112 16.443 20.0787 17.2572 19.6936 17.623C19.5006 17.8062 19.1418 18.1456 18.8963 18.3771C17.5431 19.6525 16.0553 21.6457 13.8586 25.1266C13.0427 26.4193 12.1506 27.6921 11.7795 28.0928C11.3034 28.6068 10.7104 29.0082 10.0297 29.2767C9.49411 29.4884 9.39976 29.5039 8.62632 29.5071C7.93594 29.5104 7.72332 29.4852 7.35653 29.3567C4.79503 28.4589 3.5485 25.6453 4.50499 22.9182C4.82792 21.9977 5.79438 20.794 6.58011 20.3339C6.78808 20.2126 6.96483 20.0827 6.97281 20.0452C6.98078 20.0081 6.55552 19.7443 6.02761 19.4592C5.49969 19.1741 4.61064 18.6485 4.05216 18.2914L3.03653 17.6417L2.7136 17.9804C1.42521 19.3321 0.663733 20.7598 0.243792 22.6111C-0.20173 24.578 -0.036943 26.524 0.740811 28.4798C1.14547 29.497 1.67571 30.3228 2.4837 31.1947C3.77674 32.5896 5.04653 33.3538 6.87546 33.8387C7.37547 33.9712 7.65222 33.9985 8.49874 34C9.58813 34.0018 9.96721 33.9449 10.9968 33.6256C12.5025 33.1591 13.6852 32.4103 14.7467 31.2519C15.4155 30.5219 15.7251 30.0701 17.8796 26.6817C19.3019 24.4448 20.7717 22.4372 21.6608 21.5172C23.1352 19.9909 24.592 19.3246 26.4552 19.3235C27.4203 19.3231 27.8366 19.4203 28.3296 19.7619C28.5356 19.9048 28.8728 20.1104 29.0785 20.2184C29.429 20.402 29.9944 20.813 30.2217 21.0488C30.2765 21.1057 30.4144 21.2342 30.528 21.3339C30.7822 21.5575 31.3656 22.362 31.3662 22.4902C31.3666 22.5438 31.4068 22.5676 31.4593 22.5456C31.5171 22.5218 31.54 22.5406 31.5204 22.5956C31.5031 22.6442 31.5622 22.9304 31.6513 23.2313C32.0506 24.5784 31.8533 26.3286 31.1815 27.3962C30.7798 28.0348 29.93 28.8545 29.4147 29.1007C29.2625 29.1738 29.1104 29.2479 28.9589 29.3225C28.8273 29.3876 28.7001 29.4348 28.6761 29.4276C28.6522 29.4207 28.5373 29.4567 28.421 29.5078C28.3047 29.559 27.9941 29.6068 27.731 29.614C27.4678 29.6212 27.1808 29.6414 27.0931 29.6587C26.9605 29.685 26.9549 29.6803 27.0588 29.6313C27.1549 29.5863 27.1024 29.5633 26.8356 29.533C26.2811 29.4711 25.5758 29.167 24.988 28.7371C24.1203 28.1022 23.6173 27.4769 23.1405 26.4398C22.7176 25.5201 22.2731 25.1921 21.4235 25.1734C20.9219 25.1622 20.8508 25.1774 20.6624 25.334C20.1557 25.7551 20.0312 25.9049 19.8212 26.3487C19.6983 26.6079 19.582 26.8354 19.5624 26.8545C19.4893 26.9258 19.2471 27.5489 19.2471 27.6659C19.2471 27.8379 19.8853 29.1846 20.0089 29.2731C20.0355 29.2922 20.0939 29.3858 20.1391 29.4808C20.184 29.5759 20.4092 29.9337 20.6398 30.2757C21.3149 31.2782 22.3418 32.3059 23.0292 32.6677C23.191 32.753 23.306 32.8531 23.2844 32.8905C23.2614 32.9312 23.3033 32.942 23.3897 32.9175C23.5568 32.8704 23.7266 32.9247 23.6781 33.01C23.6595 33.0424 23.7299 33.1169 23.8342 33.1753C23.9535 33.2422 24.0385 33.2563 24.0631 33.2127C24.0847 33.1749 24.0674 33.1439 24.0242 33.1439C23.9814 33.1439 23.9611 33.1277 23.9794 33.1076C24.0306 33.0525 24.2262 33.1508 24.1904 33.2134C24.1309 33.3178 24.7007 33.5737 25.3698 33.7429C26.7502 34.0921 28.7881 34.018 29.8679 33.5795C30.0081 33.5226 30.1662 33.4665 30.2187 33.455C30.4366 33.4078 31.2274 33.0345 31.4911 32.8542C31.647 32.7472 31.7975 32.6601 31.825 32.6601C31.8529 32.6601 31.9264 32.6148 31.9882 32.5593C32.05 32.5039 32.3015 32.2991 32.547 32.1047C33.6141 31.2591 34.4616 30.1698 35.0723 28.8588C35.3407 28.2825 35.7264 26.9686 35.8384 26.2504C35.9484 25.5424 35.9308 23.7418 35.8075 23.1223C35.641 22.2864 35.6377 22.2706 35.569 21.9887C35.4636 21.5582 35.2025 20.966 35.1371 21.01C35.1042 21.0319 35.057 20.9488 35.0324 20.8249C34.9766 20.5434 34.6178 19.8699 34.3291 19.5045C34.2088 19.3523 34.1218 19.2158 34.1354 19.2011C34.1487 19.1863 33.9935 18.9862 33.7902 18.7558C33.5493 18.4837 33.3922 18.3559 33.3403 18.3904C33.2892 18.4246 33.2769 18.4156 33.3061 18.3645C33.3633 18.2641 33.1716 18.0693 32.5573 17.6039C31.8573 17.074 31.3725 16.7979 31.0921 16.7691C31.0636 16.7659 31.0602 16.7291 31.0842 16.687C31.1137 16.6352 31.0818 16.6262 30.9842 16.66C30.8765 16.6971 30.8533 16.6874 30.8908 16.6212C30.927 16.5578 30.9104 16.5456 30.832 16.5783C30.7699 16.6042 30.7383 16.5956 30.7596 16.5589C30.7798 16.5232 30.5446 16.3555 30.2366 16.1867C29.3649 15.7083 29.1051 15.5578 29.0705 15.5117C29.0439 15.4761 28.43 15.263 28.2094 15.2129C28.1741 15.205 28.0359 15.1471 27.902 15.0841C27.4698 14.881 26.0625 14.7691 25.2751 14.8749ZM27.5555 15.2907C27.617 15.3083 27.7173 15.3083 27.7788 15.2907C27.8403 15.2734 27.7901 15.2594 27.6672 15.2594C27.5442 15.2594 27.4941 15.2734 27.5555 15.2907ZM10.0616 16.268C10.0616 16.2993 10.1383 16.4001 10.2323 16.4926L10.4031 16.66L10.2599 16.4354C10.1154 16.2086 10.0616 16.1633 10.0616 16.268ZM11.8476 18.3533L11.6244 18.4041L11.8476 18.4084C11.9706 18.4109 12.1284 18.3861 12.1985 18.3533L12.326 18.294L12.1985 18.2983C12.1284 18.3004 11.9706 18.3253 11.8476 18.3533ZM8.35622 18.5413C8.45323 18.5571 8.59675 18.5567 8.67516 18.5402C8.75357 18.524 8.67416 18.511 8.49874 18.5114C8.32333 18.5117 8.2592 18.5254 8.35622 18.5413ZM34.2218 19.7925C34.1972 19.8944 34.2144 19.943 34.2752 19.943C34.3573 19.943 34.3899 20.0427 34.3822 20.2706C34.3806 20.3177 34.4018 20.3411 34.4291 20.3231C34.5032 20.2731 34.6633 20.6935 34.7125 21.0675C34.7364 21.2486 34.7826 21.3789 34.8155 21.357C34.9364 21.2763 34.8679 20.9912 34.5666 20.3249C34.3224 19.7842 34.2507 19.6737 34.2218 19.7925ZM34.3487 20.7205C34.3324 20.7681 34.3407 20.8692 34.3673 20.9452C34.4051 21.0531 34.4151 21.0344 34.4125 20.8588C34.4091 20.6161 34.3952 20.5859 34.3487 20.7205ZM34.4925 21.0103C34.4925 21.1791 34.5161 21.3328 34.545 21.3523C34.5739 21.3714 34.5955 21.2335 34.5929 21.0452C34.5902 20.8573 34.5666 20.7033 34.5404 20.7033C34.5141 20.7033 34.4925 20.8415 34.4925 21.0103ZM34.9759 21.1525C35.0148 21.3688 35.0487 21.4372 35.0925 21.3886C35.1068 21.3728 35.0779 21.2666 35.0284 21.1525L34.9384 20.9452L34.9759 21.1525ZM35.4892 23.0215C35.4673 23.083 35.453 23.2321 35.4573 23.3527C35.464 23.5348 35.4733 23.5193 35.5131 23.2605C35.5636 22.9301 35.5543 22.8368 35.4892 23.0215ZM20.7631 25.4009C20.6484 25.5139 20.5833 25.6065 20.6185 25.6061C20.695 25.6061 20.8411 25.4826 20.9611 25.3167C21.0966 25.1298 20.994 25.1734 20.7631 25.4009ZM31.9759 26.2702C31.9513 26.4463 31.9446 26.605 31.9606 26.6223C31.9765 26.6396 32.0094 26.5093 32.0337 26.3329C32.0583 26.1569 32.0649 25.9985 32.049 25.9812C32.033 25.9639 32.0001 26.0939 31.9759 26.2702ZM19.7574 27.641C19.7574 27.6983 19.786 27.7641 19.8212 27.7875C19.8564 27.8109 19.885 27.7836 19.885 27.7267C19.885 27.6695 19.8564 27.6036 19.8212 27.5802C19.786 27.5568 19.7574 27.5841 19.7574 27.641ZM19.5049 27.753C19.5072 27.8768 19.688 28.2368 19.6913 28.1237C19.6926 28.0806 19.6508 27.956 19.5983 27.8473C19.5458 27.7382 19.5039 27.6961 19.5049 27.753ZM30.9204 28.1291C30.9204 28.1839 30.9489 28.2479 30.9842 28.2713C31.0194 28.2947 31.0479 28.2501 31.0479 28.1716C31.0479 28.0935 31.0194 28.0294 30.9842 28.0294C30.9489 28.0294 30.9204 28.0741 30.9204 28.1291ZM34.4297 28.7724C34.4291 28.8577 34.4573 28.9279 34.4925 28.9279C34.5726 28.9279 34.5726 28.8545 34.4925 28.7206C34.4424 28.6367 34.4304 28.6468 34.4297 28.7724Z"
          fill="currentColor"/>
</svg>
